<svg width="140" height="140" viewBox="0 0 140 140" fill="none" xmlns="http://www.w3.org/2000/svg">
<g filter="url(#filter0_d_1_8)">
<path d="M38 45C38 27.3269 52.3269 13 70 13C87.6731 13 102 27.3269 102 45C102 62.6731 87.6731 77 70 77C52.3269 77 38 62.6731 38 45Z" fill="url(#paint0_linear_1_8)" shape-rendering="crispEdges"/>
<path d="M70 54.3333V58.3333" stroke="white" stroke-width="2.66667" stroke-linecap="round" stroke-linejoin="round"/>
<path d="M79.3334 42.3333V45C79.3334 47.4754 78.35 49.8493 76.5997 51.5997C74.8493 53.35 72.4754 54.3333 70 54.3333C67.5247 54.3333 65.1507 53.35 63.4004 51.5997C61.65 49.8493 60.6667 47.4754 60.6667 45V42.3333" stroke="white" stroke-width="2.66667" stroke-linecap="round" stroke-linejoin="round"/>
<path d="M74 35.6667C74 33.4575 72.2091 31.6667 70 31.6667C67.7909 31.6667 66 33.4575 66 35.6667V45C66 47.2091 67.7909 49 70 49C72.2091 49 74 47.2091 74 45V35.6667Z" stroke="white" stroke-width="2.66667" stroke-linecap="round" stroke-linejoin="round"/>
</g>
<defs>
<filter id="filter0_d_1_8" x="0" y="0" width="140" height="140" filterUnits="userSpaceOnUse" color-interpolation-filters="sRGB">
<feFlood flood-opacity="0" result="BackgroundImageFix"/>
<feColorMatrix in="SourceAlpha" type="matrix" values="0 0 0 0 0 0 0 0 0 0 0 0 0 0 0 0 0 0 127 0" result="hardAlpha"/>
<feMorphology radius="12" operator="erode" in="SourceAlpha" result="effect1_dropShadow_1_8"/>
<feOffset dy="25"/>
<feGaussianBlur stdDeviation="25"/>
<feComposite in2="hardAlpha" operator="out"/>
<feColorMatrix type="matrix" values="0 0 0 0 0.382176 0 0 0 0 0.371888 0 0 0 0 1 0 0 0 0.5 0"/>
<feBlend mode="normal" in2="BackgroundImageFix" result="effect1_dropShadow_1_8"/>
<feBlend mode="normal" in="SourceGraphic" in2="effect1_dropShadow_1_8" result="shape"/>
</filter>
<linearGradient id="paint0_linear_1_8" x1="38" y1="13" x2="102" y2="77" gradientUnits="userSpaceOnUse">
<stop stop-color="#615FFF"/>
<stop offset="1" stop-color="#9810FA"/>
</linearGradient>
</defs>
</svg>
